<svg width="595.281" height="841.891" xmlns="http://www.w3.org/2000/svg">
 <g>
  <title>Layer 1</title>
  <path id="svg_1" fill="#F2DFCA" d="m655.041016,0.063c145.333984,-2.344 237.003967,62.706001 278.51001,165.179996c20.578003,50.809998 27.708984,127.216995 6.01001,182.197983c-12.561035,31.828003 -32.208984,47.94101 -52.096008,71.078003c143.242004,-2.113983 164.899963,181.184021 38.070007,212.22998c0.667969,1.002014 1.335999,2.003052 2.003967,3.004028c17.004028,6.708008 50.020996,31.270996 49.090027,52.057007c-24.442993,37.289978 -81.622986,73.270996 -118.21698,100.109009c-15.359009,11.677979 -30.723022,23.359009 -46.084045,35.036987c-78.802979,7.34198 -157.628967,14.684998 -236.432007,22.023987c-56.765991,5.674011 -113.546997,11.348022 -170.311005,17.02002c-52.757996,-21.354004 -105.53299,-42.715027 -158.289993,-64.06897c-42.406998,-17.351013 -84.826004,-34.706055 -127.233002,-52.058044c-13.355995,-18.351013 -26.716995,-36.708008 -40.073006,-55.059998c-12.285004,-16.745972 -31.726002,-64.911987 -7.013,-82.088989c-10.351002,-7.674011 -20.705002,-15.35199 -31.056992,-23.025024c-28.672009,-22.555969 -58.514999,-74.750977 -31.055999,-120.130951c5.832,-9.640015 15.088,-20.416016 24.044002,-27.029999c15.257,-11.267029 35.876995,-19.139008 57.104,-24.025024c10.350998,-1.667999 20.705002,-3.337982 31.056999,-5.005981c-116.271001,-7.325012 -140.765001,-123.419006 -75.137001,-206.225021c36.433998,-45.970993 157.550995,-83.265999 222.407013,-36.039001c17.173981,12.505997 28.143982,33.352005 33.059998,58.063004c0.667999,8.675003 1.335999,17.352997 2.003998,26.026993c0,-0.666992 0,-1.334991 0,-2.001999c11.707001,-19.918991 16.60199,-42.903 28.050995,-62.067001c43.019989,-72.008003 106.507996,-124.940002 189.346008,-157.171001c27.35199,-10.642 58.003967,-16.885001 89.164001,-23.025001c14.356995,-1.66799 28.719971,-3.33699 43.078003,-5.00499z"/>
  <path id="svg_2" fill="#403B35" d="m547,642h-26h-26c-29.768005,0 -83,-58.304993 -83,-123c0,-15.233002 11.192993,-25 25,-25h84h84c13.807007,0 25,9.766998 25,25c0,64.695007 -53.232971,123 -83,123z"/>
  <path id="svg_3" opacity="0.2" fill="#FFFFFF" d="m551.786987,680.838013l-17.604004,1.544983l-17.60498,1.544006c-20.156006,1.768982 -59.64801,-34.593018 -63.473022,-78.445984c-0.901978,-10.327026 6.100006,-17.612 15.449005,-18.432007l56.876984,-4.991028l56.877014,-4.990967c9.350037,-0.820007 17.505981,5.13501 18.406006,15.461975c3.827026,43.854004 -28.770996,86.539001 -48.927002,88.309021z"/>
  <path id="svg_4" fill="#403B35" d="m750.5,497c-37.278992,0 -67.5,-30.221008 -67.5,-67.5c0,-37.278015 30.221008,-67.5 67.5,-67.5s67.5,30.221985 67.5,67.5c0,37.278992 -30.221008,67.5 -67.5,67.5zm20,-107.501007c-11.044983,0 -20,8.954987 -20,20.001007s8.955017,20 20,20c11.046997,0 20,-8.95401 20,-20s-8.953979,-20.001007 -20,-20.001007z"/>
  <path id="svg_5" opacity="0.4" fill="#FFFFFF" d="m770.5,389.5c11.046997,0 20,8.95401 20,20s-8.953003,20 -20,20c-11.044983,0 -20,-8.95401 -20,-20s8.955017,-20 20,-20z"/>
  <path id="svg_6" fill="#403B35" d="m299.5,497c-37.278015,0 -67.5,-30.221008 -67.5,-67.5c0,-37.278015 30.221008,-67.5 67.5,-67.5c37.278992,0 67.5,30.221985 67.5,67.5c0,37.278992 -30.221008,67.5 -67.5,67.5zm16,-107.501007c-11.045013,0 -20,8.954987 -20,20.001007s8.954987,20 20,20c11.046997,0 20,-8.95401 20,-20s-8.95401,-20.001007 -20,-20.001007z"/>
  <path id="svg_7" opacity="0.4" fill="#FFFFFF" d="m315.5,389.5c11.046997,0 20,8.95401 20,20s-8.953003,20 -20,20c-11.045013,0 -20,-8.95401 -20,-20s8.954987,-20 20,-20z"/>
  <path id="svg_8" opacity="0.039" d="m-221.738998,638.025024c0,0 58.128998,-412.578003 343.833008,-633.172975c266.079025,-205.442 761.12999,-219.979995 761.12999,-219.979995l233.61499,575.76503c0,0 -160.249939,-223.299011 -221.399963,-246.250015c-633.869019,-237.920067 -658.97702,647.950943 -865.439026,955.61293c-134.869003,200.978027 -251.738998,-431.974976 -251.738998,-431.974976z"/>
  <path id="svg_9" fill="#F93232" d="m469.177002,697.10199c26.833984,-1.880005 48.349976,23.66803 48.143005,56.598022l-3.549011,565.521912l-83.368988,9.333984l-9.096008,-567.744934c-0.528992,-33.088989 20.940002,-61.822998 47.871002,-63.708984z"/>
  <path id="svg_10" fill="#F93232" d="m661.383972,683.638977c26.151978,-1.830994 45.948975,23.492004 44.323975,56.106995l-27.948975,561.113037l-81.541016,9.129883l15.89502,-563.310913c0.926025,-32.770996 23.027039,-61.199951 49.270996,-63.039001z"/>
  <path id="svg_11" fill="#F93232" d="m848.716003,670.518005c25.492004,-1.784973 43.650024,23.317017 40.679993,55.625l-51.21698,556.756042l-79.770996,8.930908l39.721008,-558.927917c2.305969,-32.46106 25.004944,-60.592041 50.586975,-62.384033z"/>
  <path id="svg_12" fill="#FFFFFF" d="m371.183014,703.966003c27.188995,-1.903992 49.593994,23.757019 50.123016,56.846008l9.095978,567.744995l-84.402008,9.442993l-22,-570c-1.286011,-33.247986 19.89801,-62.122009 47.183014,-64.033997z"/>
  <path id="svg_13" fill="#FFFFFF" d="m565.901978,690.327026c26.48999,-1.854004 47.137024,23.580017 46.210999,56.353027l-15.89502,563.310913l-82.44696,9.232056l3.549011,-565.52301c0.20697,-32.929993 21.997986,-61.510986 48.58197,-63.372986z"/>
  <path id="svg_14" fill="#FFFFFF" d="m755.650024,677.036987c25.815979,-1.807983 44.784973,23.403992 42.479004,55.86499l-39.721008,558.927979l-80.64801,9.030029l27.949036,-561.112976c1.623962,-32.61499 24.030945,-60.89502 49.940979,-62.710022z"/>
  <path id="svg_15" fill="#FFFFFF" d="m940.611023,664.08197c25.171997,-1.763 42.539001,23.22998 38.919983,55.385986l-62.442993,554.596985l-78.90802,8.834961l51.217041,-556.75592c2.969971,-32.307983 25.953979,-60.292969 51.213989,-62.062012z"/>
  <path id="svg_16" fill="#F93232" d="m86.441002,633.322021c10.300995,3.531982 22.404999,34.875 26.790001,69.044983l66.821991,520.723083l-29.560989,-20.414063l-73.559006,-514.166016c-4.799995,-33.551025 -0.654999,-58.671021 9.508003,-55.187988z"/>
  <path id="svg_17" fill="#F93232" d="m164.365005,660.038025c11.396011,3.906982 23.593002,36.687012 26.998001,72.160034l51.273987,534.107971l-31.890991,-22.021973l-59.417007,-527.371033c-3.921997,-34.811035 1.802002,-60.726013 13.036011,-56.875z"/>
  <path id="svg_18" fill="#F93232" d="m250.768997,689.661011c12.673996,4.346985 24.912003,38.695007 27.095016,75.562988l32.437988,547.810059l-34.505005,-23.829102l-42.311005,-540.924927c-2.827988,-36.159058 4.798004,-62.89801 17.283005,-58.619019z"/>
  <path id="svg_19" fill="#FFFFFF" d="m50.277,620.924988c9.812,3.362976 21.856003,34.033997 26.655998,67.585022l73.559006,514.166016l-28.492004,-19.676025l-79.691002,-507.710022c-5.170998,-32.948975 -1.714996,-57.685974 7.968002,-54.36499z"/>
  <path id="svg_20" fill="#FFFFFF" d="m124.422997,646.343994c10.828011,3.711975 22.984001,35.757996 26.905998,70.567993l59.417007,527.370972l-30.693008,-21.19397l-66.821991,-520.723022c-4.385002,-34.168945 0.514,-59.682983 11.191994,-56.021973z"/>
  <path id="svg_21" fill="#FFFFFF" d="m206.423004,674.458984c12.009003,4.115967 24.235001,37.661987 27.062988,73.820984l42.311005,540.924011l-33.160004,-22.896973l-51.273987,-534.107971c-3.405014,-35.475037 3.224991,-61.799011 15.059998,-57.740051z"/>
  <path id="svg_22" fill="#FFFFFF" d="m297.593994,705.716003c13.395996,4.59198 26.945007,39.684998 28.406006,77.283997l21,555l-36.696991,-24.967041l-32.438019,-547.809937c-2.18399,-36.867004 6.539001,-64.030029 19.729004,-59.507019z"/>
 </g>
</svg>